<?xml version="1.0" encoding="UTF-8"?>
<svg width="73px" height="93px" viewBox="0 0 73 93" version="1.1" xmlns="http://www.w3.org/2000/svg" xmlns:xlink="http://www.w3.org/1999/xlink">
    <title>Group 8</title>
    <g id="Pages" stroke="none" stroke-width="1" fill="none" fill-rule="evenodd">
        <g id="Homepage-" transform="translate(-383.000000, -1253.000000)">
            <g id="Group-8" transform="translate(383.158125, 1253.670406)">
                <rect id="Rectangle" fill="#EEF1F1" x="0" y="0" width="72.0481928" height="92" rx="7.04"></rect>
                <rect id="Rectangle-Copy-10" fill="#FFFFFF" x="7.18570031" y="7.55769955" width="57.6767921" height="14.4096386" rx="2.64"></rect>
                <rect id="Rectangle-Copy-14" fill="#B4B4B4" x="7.18570031" y="25.9724209" width="12.100415" height="12.3017061" rx="2.64"></rect>
                <rect id="Rectangle-Copy-19" fill="#B4B4B4" x="7.18570031" y="41.668557" width="12.100415" height="12.3017061" rx="2.64"></rect>
                <rect id="Rectangle-Copy-23" fill="#B4B4B4" x="7.18570031" y="57.3646931" width="12.100415" height="12.3017061" rx="2.64"></rect>
                <rect id="Rectangle-Copy-27" fill="#B4B4B4" x="7.18570031" y="73.0608293" width="12.100415" height="12.3017061" rx="2.64"></rect>
                <rect id="Rectangle-Copy-15" fill="#B4B4B4" x="22.377826" y="25.9724209" width="12.100415" height="12.3017061" rx="2.64"></rect>
                <rect id="Rectangle-Copy-20" fill="#B4B4B4" x="22.377826" y="41.668557" width="12.100415" height="12.3017061" rx="2.64"></rect>
                <rect id="Rectangle-Copy-24" fill="#B4B4B4" x="22.377826" y="57.3646931" width="12.100415" height="12.3017061" rx="2.64"></rect>
                <rect id="Rectangle-Copy-28" fill="#B4B4B4" x="22.377826" y="73.0608293" width="12.100415" height="12.3017061" rx="2.64"></rect>
                <rect id="Rectangle-Copy-17" fill="#B4B4B4" x="37.5699517" y="25.9724209" width="12.100415" height="12.3017061" rx="2.64"></rect>
                <rect id="Rectangle-Copy-21" fill="#B4B4B4" x="37.5699517" y="41.668557" width="12.100415" height="12.3017061" rx="2.64"></rect>
                <rect id="Rectangle-Copy-25" fill="#B4B4B4" x="37.5699517" y="57.3646931" width="12.100415" height="12.3017061" rx="2.64"></rect>
                <rect id="Rectangle-Copy-29" fill="#B4B4B4" x="37.5699517" y="73.0608293" width="12.100415" height="12.3017061" rx="2.64"></rect>
                <rect id="Rectangle-Copy-18" fill="#B4B4B4" x="52.7620774" y="25.9724209" width="12.100415" height="12.3017061" rx="2.64"></rect>
                <rect id="Rectangle-Copy-22" fill="#B4B4B4" x="52.7620774" y="41.668557" width="12.100415" height="12.3017061" rx="2.64"></rect>
                <rect id="Rectangle-Copy-26" fill="#C80032" x="52.7620774" y="57.3646931" width="12.100415" height="27.9978422" rx="2.64"></rect>
            </g>
        </g>
    </g>
</svg>